<svg height="496pt" viewBox="-32 0 496 496.00207" width="496pt" xmlns="http://www.w3.org/2000/svg"><path d="m51.78125 187.957031c-2.191406 0-3.976562-1.761719-4-3.957031-.085938-8.445312 5.773438-18.957031 15.691406-28.125 14.703125-13.597656 33.84375-20.453125 52.507813-18.785156 2.199219.195312 3.824219 2.136718 3.628906 4.335937-.191406 2.199219-2.074219 3.8125-4.339844 3.632813-23.292969-2.101563-40.191406 10.980468-46.363281 16.6875-8.039062 7.429687-13.191406 16.132812-13.125 22.167968.023438 2.207032-1.753906 4.015626-3.957031 4.039063-.015625.003906-.03125.003906-.042969.003906zm0 0" fill="#d94635"/><path d="m4.003906 205.007812c-.210937 0-.417968-.019531-.636718-.054687-2.179688-.347656-3.667969-2.398437-3.3164068-4.582031 1.5898438-9.945313 7.7656248-35.085938 30.6445308-53.691406 30.875-25.109376 67.617188-18.652344 74.679688-17.101563 2.15625.472656 3.523438 2.609375 3.050781 4.765625-.476562 2.160156-2.625 3.519531-4.765625 3.046875-6.414062-1.410156-39.894531-7.292969-67.914062 15.496094-20.746094 16.867187-26.34375 39.710937-27.792969 48.75-.316406 1.96875-2.019531 3.371093-3.949219 3.371093zm0 0" fill="#d94635"/><path d="m325.074219 147.308594h-206.621094c-6.816406 0-12.34375-5.503906-12.34375-12.289063 0-6.789062 5.527344-12.292969 12.34375-12.292969h206.617187c6.8125 0 12.34375 5.503907 12.34375 12.292969 0 6.785157-5.527343 12.289063-12.339843 12.289063zm0 0" fill="#ffd5ae"/><path d="m402.410156 263.746094-79.957031-116.4375h-199.339844l-79.953125 116.4375c-67.6875 98.65625 3.261719 232.257812 123.269532 232.257812h112.554687c120.164063 0 191.113281-133.601562 123.425781-232.257812zm0 0" fill="#ff9c7a"/><path d="m121.714844 122.722656h200.738281l21.734375-100.511718c1.863281-8.503907-6.054688-14.84375-11.332031-9.125l-56.824219 62.785156c-3.101562 3.398437-7.914062 2.628906-10.246094-1.699219l-38.5-70.363281c-2.640625-4.945313-8.382812-5.101563-11.175781-.304688l-36.949219 61.078125c-2.328125 3.710938-6.519531 4.640625-9.625 1.855469l-62.101562-57.058594c-5.433594-4.949218-12.730469 1.699219-10.714844 9.894532zm0 0" fill="#d94635"/><path d="m326.242188 329.660156c0-56.910156-46.320313-103.046875-103.460938-103.046875s-103.460938 46.136719-103.460938 103.046875c0 56.914063 46.320313 103.050782 103.460938 103.050782s103.460938-46.136719 103.460938-103.050782zm0 0" fill="#fff"/><path d="m301.898438 329.660156c0-43.519531-35.421876-78.800781-79.117188-78.800781s-79.117188 35.28125-79.117188 78.800781c0 43.523438 35.421876 78.804688 79.117188 78.804688s79.117188-35.28125 79.117188-78.804688zm0 0" fill="#ff9c7a"/><path d="m218.347656 382.972656v-13.113281c-7.558594-.128906-15.382812-2.46875-19.945312-5.714844l3.125-8.703125c4.695312 3.117188 11.476562 5.585938 18.78125 5.585938 9.257812 0 15.515625-5.324219 15.515625-12.730469 0-7.144531-5.085938-11.558594-14.734375-15.453125-13.296875-5.199219-21.511719-11.167969-21.511719-22.46875 0-10.78125 7.691406-18.960938 19.6875-20.910156v-13.113282h8.082031v12.59375c7.824219.261719 13.167969 2.339844 16.953125 4.546876l-3.261719 8.574218c-2.738281-1.554687-8.082031-4.417968-16.429687-4.417968-10.039063 0-13.820313 5.976562-13.820313 11.167968 0 6.753906 4.824219 10.132813 16.171876 14.804688 13.425781 5.457031 20.207031 12.207031 20.207031 23.769531 0 10.257813-7.171875 19.867187-20.601563 22.078125v13.503906zm0 0" fill="#fff"/><path d="m416.28125 77.457031 15.71875 8.625-15.71875 8.625-8.597656 15.765625-8.597656-15.765625-15.722657-8.625 15.722657-8.625 8.597656-15.769531zm0 0" fill="#1a7bbf"/></svg>